<?xml version="1.0" encoding="utf-8"?>
<!-- Generated by IcoMoon.io -->
<!DOCTYPE svg PUBLIC "-//W3C//DTD SVG 1.1//EN" "http://www.w3.org/Graphics/SVG/1.1/DTD/svg11.dtd">
<svg version="1.1" xmlns="http://www.w3.org/2000/svg" xmlns:xlink="http://www.w3.org/1999/xlink" width="80" height="75" viewBox="0 0 80 75">
<g>
</g>
	<path d="M72.656 4.688h-16.406c-3.867 0-9.269 2.237-12.003 4.972l-27.556 27.556c-2.734 2.734-2.734 7.209 0 9.944l20.525 20.525c2.734 2.735 7.209 2.735 9.944 0l27.556-27.556c2.735-2.735 4.972-8.136 4.972-12.003v-16.406c0-3.867-3.164-7.031-7.031-7.031zM63.281 28.125c-3.883 0-7.031-3.148-7.031-7.031s3.148-7.031 7.031-7.031 7.031 3.148 7.031 7.031-3.148 7.031-7.031 7.031zM6.345 43.845l25.077 25.077c-2.656 1.403-6.040 0.992-8.268-1.237l-20.525-20.525c-2.734-2.735-2.734-7.209 0-9.944l27.556-27.556c2.735-2.735 8.136-4.972 12.003-4.972l-35.843 35.843c-0.911 0.912-0.911 2.403 0 3.315z" fill="#ffffff"></path>
</svg>
